# xmcd CD database file
#
# Track frame offsets:
#	150
#	62715
#	129060
#	169972
#	240275
#
# Disc length: 3623 seconds
#
# Revision: 0
# Processed by: cddbd v1.5.1PL0 Copyright (c) Steve Scherf et al.
# Submitted via: CDex 1.51
#
DISCID=350e2505
DTITLE=Brecker Brothers - Live at the Royal Festival Hall [CD1]
DYEAR=1992
DGENRE=Jazz
TTITLE0=Above and Below
TTITLE1=Spherical
TTITLE2=Some Skunk Funk
TTITLE3=Common Ground
TTITLE4=Big Idea > Squids
EXTD=YEAR: 1992
EXTT0=
EXTT1=
EXTT2=
EXTT3=
EXTT4=
PLAYORDER=
